<svg xmlns="http://www.w3.org/2000/svg" xmlns:xlink="http://www.w3.org/1999/xlink" width="500" zoomAndPan="magnify" viewBox="0 0 375 374.999991" height="500" preserveAspectRatio="xMidYMid meet" version="1.0"><defs><g/><clipPath id="fe4b60027b"><path d="M 37.5 37.5 L 337.5 37.5 L 337.5 337.5 L 37.5 337.5 Z M 37.5 37.5 " clip-rule="nonzero"/></clipPath><clipPath id="42abb14fa8"><path d="M 187.5 37.5 C 104.65625 37.5 37.5 104.65625 37.5 187.5 C 37.5 270.34375 104.65625 337.5 187.5 337.5 C 270.34375 337.5 337.5 270.34375 337.5 187.5 C 337.5 104.65625 270.34375 37.5 187.5 37.5 Z M 187.5 37.5 " clip-rule="nonzero"/></clipPath><clipPath id="8e1e70a1dc"><path d="M 51.234375 51.234375 L 323.765625 51.234375 L 323.765625 323.765625 L 51.234375 323.765625 Z M 51.234375 51.234375 " clip-rule="nonzero"/></clipPath><clipPath id="4c297c6619"><path d="M 187.5 51.234375 C 112.242188 51.234375 51.234375 112.242188 51.234375 187.5 C 51.234375 262.757812 112.242188 323.765625 187.5 323.765625 C 262.757812 323.765625 323.765625 262.757812 323.765625 187.5 C 323.765625 112.242188 262.757812 51.234375 187.5 51.234375 Z M 187.5 51.234375 " clip-rule="nonzero"/></clipPath><clipPath id="2101d934c5"><path d="M 68.75 68.75 L 306.25 68.75 L 306.25 306.25 L 68.75 306.25 Z M 68.75 68.75 " clip-rule="nonzero"/></clipPath><clipPath id="a0adc96adb"><path d="M 187.5 68.75 C 121.914062 68.75 68.75 121.914062 68.75 187.5 C 68.75 253.085938 121.914062 306.25 187.5 306.25 C 253.085938 306.25 306.25 253.085938 306.25 187.5 C 306.25 121.914062 253.085938 68.75 187.5 68.75 Z M 187.5 68.75 " clip-rule="nonzero"/></clipPath><clipPath id="f23693384e"><path d="M 68.75 269.863281 L 306.25 269.863281 L 306.25 375 L 68.75 375 Z M 68.75 269.863281 " clip-rule="nonzero"/></clipPath><clipPath id="e173d025ec"><path d="M 187.5 269.863281 C 121.914062 269.863281 68.75 323.027344 68.75 388.613281 C 68.75 454.195312 121.914062 507.363281 187.5 507.363281 C 253.085938 507.363281 306.25 454.195312 306.25 388.613281 C 306.25 323.027344 253.085938 269.863281 187.5 269.863281 Z M 187.5 269.863281 " clip-rule="nonzero"/></clipPath><clipPath id="21463a5a94"><path d="M 81.1875 282.300781 L 293.8125 282.300781 L 293.8125 375 L 81.1875 375 Z M 81.1875 282.300781 " clip-rule="nonzero"/></clipPath><clipPath id="4dcaa358e2"><path d="M 187.5 282.300781 C 128.785156 282.300781 81.1875 329.898438 81.1875 388.613281 C 81.1875 447.328125 128.785156 494.925781 187.5 494.925781 C 246.214844 494.925781 293.8125 447.328125 293.8125 388.613281 C 293.8125 329.898438 246.214844 282.300781 187.5 282.300781 Z M 187.5 282.300781 " clip-rule="nonzero"/></clipPath><clipPath id="42c2e063a4"><path d="M 30.972656 306.25 L 338 306.25 L 338 375 L 30.972656 375 Z M 30.972656 306.25 " clip-rule="nonzero"/></clipPath><clipPath id="3d15fbb194"><path d="M 184.238281 306.25 C 99.589844 306.25 30.972656 353.847656 30.972656 412.5625 C 30.972656 471.277344 99.589844 518.875 184.238281 518.875 C 268.882812 518.875 337.5 471.277344 337.5 412.5625 C 337.5 353.847656 268.882812 306.25 184.238281 306.25 Z M 184.238281 306.25 " clip-rule="nonzero"/></clipPath><clipPath id="5d3a68351c"><path d="M 107.269531 294.738281 L 267.730469 294.738281 L 267.730469 375 L 107.269531 375 Z M 107.269531 294.738281 " clip-rule="nonzero"/></clipPath><clipPath id="e019da4b82"><path d="M 187.5 294.738281 C 143.191406 294.738281 107.269531 342.335938 107.269531 401.050781 C 107.269531 459.765625 143.191406 507.363281 187.5 507.363281 C 231.808594 507.363281 267.730469 459.765625 267.730469 401.050781 C 267.730469 342.335938 231.808594 294.738281 187.5 294.738281 Z M 187.5 294.738281 " clip-rule="nonzero"/></clipPath></defs><rect x="-37.5" width="450" fill="#ffffff" y="-37.499999" height="449.999989" fill-opacity="1"/><rect x="-37.5" width="450" fill="#ffffff" y="-37.499999" height="449.999989" fill-opacity="1"/><g clip-path="url(#fe4b60027b)"><g clip-path="url(#42abb14fa8)"><path fill="#727d73" d="M 37.5 37.5 L 337.5 37.5 L 337.5 337.5 L 37.5 337.5 Z M 37.5 37.5 " fill-opacity="1" fill-rule="nonzero"/></g></g><g clip-path="url(#8e1e70a1dc)"><g clip-path="url(#4c297c6619)"><path fill="#ffffff" d="M 51.234375 51.234375 L 323.765625 51.234375 L 323.765625 323.765625 L 51.234375 323.765625 Z M 51.234375 51.234375 " fill-opacity="1" fill-rule="nonzero"/></g></g><g clip-path="url(#2101d934c5)"><g clip-path="url(#a0adc96adb)"><path fill="#727d73" d="M 68.75 68.75 L 306.25 68.75 L 306.25 306.25 L 68.75 306.25 Z M 68.75 68.75 " fill-opacity="1" fill-rule="nonzero"/></g></g><g fill="#ffffff" fill-opacity="1"><g transform="translate(118.312679, 261.329578)"><g><path d="M 71.890625 -117.578125 L 25.125 -7.578125 C 24.113281 -4.835938 22.5625 -2.707031 20.46875 -1.1875 C 18.375 0.320312 16.097656 1.078125 13.640625 1.078125 C 9.742188 1.078125 6.859375 0 4.984375 -2.15625 C 3.109375 -4.320312 2.171875 -6.992188 2.171875 -10.171875 C 2.171875 -11.472656 2.382812 -12.847656 2.8125 -14.296875 L 56.734375 -143.78125 C 57.890625 -146.675781 59.65625 -148.914062 62.03125 -150.5 C 64.414062 -152.082031 66.984375 -152.734375 69.734375 -152.453125 C 72.328125 -152.453125 74.742188 -151.691406 76.984375 -150.171875 C 79.222656 -148.660156 80.847656 -146.53125 81.859375 -143.78125 L 135.125 -16.890625 C 135.84375 -15.015625 136.203125 -13.28125 136.203125 -11.6875 C 136.203125 -7.789062 134.9375 -4.6875 132.40625 -2.375 C 129.882812 -0.0703125 127.109375 1.078125 124.078125 1.078125 C 121.484375 1.078125 119.140625 0.285156 117.046875 -1.296875 C 114.953125 -2.890625 113.328125 -5.054688 112.171875 -7.796875 L 65.609375 -116.28125 Z M 31.828125 -34 L 43.75 -58.90625 L 102.203125 -58.90625 L 106.328125 -34 Z M 31.828125 -34 "/></g></g></g><g clip-path="url(#f23693384e)"><g clip-path="url(#e173d025ec)"><path fill="#ffffff" d="M 68.75 269.863281 L 306.25 269.863281 L 306.25 507.363281 L 68.75 507.363281 Z M 68.75 269.863281 " fill-opacity="1" fill-rule="nonzero"/></g></g><g clip-path="url(#21463a5a94)"><g clip-path="url(#4dcaa358e2)"><path fill="#727d73" d="M 81.1875 282.300781 L 293.8125 282.300781 L 293.8125 494.925781 L 81.1875 494.925781 Z M 81.1875 282.300781 " fill-opacity="1" fill-rule="nonzero"/></g></g><g clip-path="url(#42c2e063a4)"><g clip-path="url(#3d15fbb194)"><path fill="#ffffff" d="M 30.972656 306.25 L 337.449219 306.25 L 337.449219 518.875 L 30.972656 518.875 Z M 30.972656 306.25 " fill-opacity="1" fill-rule="nonzero"/></g></g><g clip-path="url(#5d3a68351c)"><g clip-path="url(#e019da4b82)"><path fill="#ffffff" d="M 107.269531 294.738281 L 267.730469 294.738281 L 267.730469 507.222656 L 107.269531 507.222656 Z M 107.269531 294.738281 " fill-opacity="1" fill-rule="nonzero"/></g></g></svg>
